# xmcd
#
# Track frame offsets:
#  150
#  15496
#  40635
#  57725
#  74367
#  91233
#  112303
#  149551
#  169310
#
# Disc length: 2460 seconds
#
# Revision: 0
# Processed by: cddbd v1.4PL0 Copyright (c) Steve Scherf et al.
# Submitted via: AltoMP3_Maker 3.0
#
DISCID=83099a09
DTITLE=David and Roselyn - Kiss It (And Make It Better)
DYEAR=1900
DGENRE=
TTITLE0=Kiss It and Make It Better
TTITLE1=Come Back Baby
TTITLE2=Vote Your Conviction But Vote.
TTITLE3=Highway #95
TTITLE4=Sebastapole
TTITLE5=Chocolate Cookie
TTITLE6=Poor Baby
TTITLE7=Amazing Grace
TTITLE8=Marie Laveaux
EXTD=
EXTT0=
EXTT1=
EXTT2=
EXTT3=
EXTT4=
EXTT5=
EXTT6=
EXTT7=
EXTT8=
PLAYORDER=
